<svg width="47" height="48" viewBox="0 0 47 48" fill="none" xmlns="http://www.w3.org/2000/svg">
<rect y="0.5" width="47" height="47" rx="23.5" fill="#0F2615"/>
<path d="M32.5 33L26.5 27M14.5 22C14.5 22.9193 14.6811 23.8295 15.0328 24.6788C15.3846 25.5281 15.9002 26.2997 16.5503 26.9497C17.2003 27.5998 17.9719 28.1154 18.8212 28.4672C19.6705 28.8189 20.5807 29 21.5 29C22.4193 29 23.3295 28.8189 24.1788 28.4672C25.0281 28.1154 25.7997 27.5998 26.4497 26.9497C27.0998 26.2997 27.6154 25.5281 27.9672 24.6788C28.3189 23.8295 28.5 22.9193 28.5 22C28.5 21.0807 28.3189 20.1705 27.9672 19.3212C27.6154 18.4719 27.0998 17.7003 26.4497 17.0503C25.7997 16.4002 25.0281 15.8846 24.1788 15.5328C23.3295 15.1811 22.4193 15 21.5 15C20.5807 15 19.6705 15.1811 18.8212 15.5328C17.9719 15.8846 17.2003 16.4002 16.5503 17.0503C15.9002 17.7003 15.3846 18.4719 15.0328 19.3212C14.6811 20.1705 14.5 21.0807 14.5 22Z" stroke="#F7F8FA" stroke-width="2" stroke-linecap="round" stroke-linejoin="round"/>
</svg>
